<?xml version="1.0" standalone="no"?>
<!DOCTYPE svg PUBLIC "-//W3C//DTD SVG 20010904//EN"
 "http://www.w3.org/TR/2001/REC-SVG-20010904/DTD/svg10.dtd">
<svg version="1.0" xmlns="http://www.w3.org/2000/svg"
 width="500.000000pt" height="500.000000pt" viewBox="0 0 500.000000 500.000000"
 preserveAspectRatio="xMidYMid meet">

<g transform="translate(0.000000,500.000000) scale(0.100000,-0.100000)"
fill="#000000" stroke="none">
<path d="M2410 3962 l0 -221 398 -3 c335 -4 406 -7 457 -21 216 -62 351 -215
390 -446 14 -78 16 -192 13 -813 -4 -804 -1 -767 -74 -916 -65 -133 -180 -221
-340 -262 -70 -18 -112 -20 -461 -20 l-383 0 0 -226 0 -226 423 5 c454 5 500
9 662 63 124 40 237 108 333 199 152 144 238 302 288 535 18 79 19 143 19 880
0 628 -3 811 -14 870 -75 411 -324 686 -715 787 -100 26 -105 26 -548 30
l-448 5 0 -220z"/>
<path d="M2710 3566 c-245 -52 -444 -222 -531 -456 -27 -72 -33 -103 -37 -200
-7 -193 30 -306 160 -477 99 -131 119 -165 155 -268 21 -59 26 -96 32 -235 7
-196 19 -231 91 -267 42 -22 56 -23 248 -23 179 0 207 2 240 19 75 38 94 80
93 201 -3 233 43 365 199 570 113 148 160 281 160 450 0 321 -211 595 -519
675 -88 22 -213 27 -291 11z m295 -185 c234 -83 385 -333 347 -577 -16 -102
-64 -200 -151 -309 -136 -172 -189 -316 -199 -545 l-7 -145 -166 -3 -166 -2
-6 142 c-8 224 -60 378 -177 528 -28 36 -66 88 -86 116 -204 297 -38 720 319
810 74 19 217 12 292 -15z"/>
<path d="M2577 1523 c-12 -11 -8 -118 5 -131 17 -17 479 -17 496 0 12 12 16
95 6 122 -5 14 -37 16 -253 16 -136 0 -251 -3 -254 -7z"/>
</g>
</svg>
